<svg xmlns="http://www.w3.org/2000/svg" viewBox="0 0 388.42 369.19"><defs><style>.cls-1{fill:#231815;}</style></defs><title>cllctv_icon</title><g id="レイヤー_2" data-name="レイヤー 2"><g id="レイヤー_1-2" data-name="レイヤー 1"><path class="cls-1" d="M23.33,233.71a36.47,36.47,0,0,0-.65,4.53l-.65,1.3S18.79,246,17.5,248s-.65,2.59-1.95,4.54-3.89,6.48-5.83,9.07c-2.59,2.59-5.83,5.18-7.13,7.78-1.29,1.94-.65,4.53-.65,5.83h2.6c.64-.65,1.29-3.24,1.94-3.24.65-.65,4.54-5.19,6.48-7.78,2.59-2.59,5.18-10.37,7.13-13.61S26.57,237,27.86,235s.65-3.24-.64-3.89C25.27,230.47,23.33,233.71,23.33,233.71Z"/><path class="cls-1" d="M.65,280.36S0,281,0,283.6c0,1.95,4.54,14.91,5.83,19.44s5.83,13.61,8.43,20.74,6.48,19.44,7.12,21.38,5.19,5.19,9.08,10.37c4.53,5.18,5.83,9.07,5.83,9.07s1.29,1.95,3.24,1.3-2.59-9.72-4.54-12.31-7.77-6.48-9.72-9.72-7.13-25.28-9.72-32.4-8.42-20.74-9.07-22-1.94-3.88-1.94-5.18v-3.89c0-.65-.65-1.94-1.3-1.94S.65,280.36.65,280.36Z"/><path class="cls-1" d="M339.55,368.49c1.95,3.24,7.78-5.83,7.78-5.83s5.83-9.72,7.77-11.67c1.95-1.29,11.67-11.66,13.61-14.9,2-3.89,2.59-7.13,2-8.42,0-1.3-2.6-1.95-3.89,0s0,1.94-.65,3.88-5.18,5.84-5.18,5.84-3.89,4.53-5.19,5.83a72,72,0,0,1-6.48,8.42c-1.94,1.95-8.42,12.31-9.72,13.61S338.9,366.55,339.55,368.49Z"/><path class="cls-1" d="M192.46,170.2c-2,.65-3.24,2.59-4.54,3.89l-1.3.65a2.4,2.4,0,0,0-1.29,1.94c0,1.3,3.24,5.19,3.89,5.83,1.29.65,2.59.65,3.88,1.3.65.65,0,1.94,2.6,1.3s5.18-5.19,5.18-4.54v.65l.65-5.83s-.65-2.6-1.95-3.24-3.88-2.6-4.53-2.6C194.4,168.91,192.46,170.2,192.46,170.2Z"/><path class="cls-1" d="M387.5,268.05c-.64-1.3-2.59-1.3-2.59-1.3.65-1.29,0-4.53-.65-6.48s-7.77-9.72-9.07-11.66c-1.29-1.3-5.83-9.07-6.48-11a44.91,44.91,0,0,1-1.29-10.36c0-3.24-1.3-5.84-1.3-7.13s-1.94-3.89-3.89-3.89h-.65c.65-3.24,1.3-5.83,1.3-6.48a11,11,0,0,0,1.3-3.24c0-.65-.65-3.89,0-5.18s2.59-3.89,2.59-5.19.65-5.83.65-7.13c.64-1.29,1.94-15.55,1.94-17.49s.65-9.07.65-10.37-.65-11.66-.65-13.61-2.59-16.2-3.89-23.33-6.48-18.79-7.13-20.73-4.53-6.48-5.18-7.78a10.78,10.78,0,0,0-1.94-3.89c-.65-1.29-5.19-5.18-5.84-6.48a55.52,55.52,0,0,0-4.53-6.48c-.65-.64-4.54-8.42-5.19-9.07s-7.77-8.42-7.77-8.42-.65-3.24-1.3-3.89-3.89-1.94-4.53-3.24-14.26-15.55-18.8-18.79c-4.53-2.59-17.49-10.37-19.44-11s-4.53-.65-7.12-1.94l-2.6-1.3S264.38,16,260.5,14s-15.56-6.48-18.15-7.77c-3.24-1.3-33-5.19-35-5.83s-13.61-.65-18.79.64-8.43,2-12.31,2c-3.89.65-18.15,2.59-20.74,3.24l-1.94.65s-5.84,2.59-7.13,2.59c-1.3.65-3.89,0-5.19.65s-3.24,1.94-4.53,2.59-3.89,0-5.19.65c-1.29,1.29-6.48,4.53-9.07,5.83s-12.31,5.83-14.25,6.48c-2,1.29-9.08,6.48-11.67,8.42l-2.59,2s-13.61,11-14.9,12.31S67.39,62,66.74,63.28l-1.29.65s-9.72,11.66-11,13.61,0,1.29-1.29,2.59c-.65,1.3-7.78,11-8.43,11.66-.65,1.3,0,1.3-.65,2.6S42.77,95.68,41.47,97c-1.29,1.94-1.29,4.53-2.59,6.48a112.23,112.23,0,0,0-6.48,12.31c-.65,1.3-4.54,15.55-5.83,19.44S24,148.82,23.33,150.76c0,2-1.3,14.91-1.3,16.85-.65,1.94-1.29,24-1.29,27.22.64,3.24,4.53,22.68,4.53,26.56.65,3.89,1.95,7.13,1.95,9.72.64,1.95,5.83,13.61,5.83,14.26,0,1.3,4.53,9.72,5.18,11.66a59.77,59.77,0,0,0,4.54,8.43l-.65,1.29c-5.18-1.29-1.94,10.37-1.94,10.37s7.12,13.61,7.12,15.55-1.94,5.19-.64,5.84c1.29,1.29,8.42-7.78,9.72-17.5,0-1.94.64-3.89,0-5.18a11.25,11.25,0,0,0,1.29-3.24,137,137,0,0,1,2.59-16.85c2-4.54,7.13-13.61,9.08-15.55,1.94-1.3,4.53-3.89,7.12-4.54s3.24-1.94,5.84-1.3c3.24.65,1.94,9.72,1.29,14.91-1.29,5.18-3.24,9.72-4.53,11s.64,26.57,1.29,30.46c.65,4.54,2.59,13,3.24,13.61a52.43,52.43,0,0,0,1.3,5.83,2,2,0,0,0-.65,1.3,2.79,2.79,0,0,0-1.3,2.59,14.41,14.41,0,0,1-.64,5.18c-.65,1.95-5.84,11.67-7.13,14.26s-2,12.31-2,14.9,0,2,1.3,2c.65,0,1.94-2,2.59-3.24s0-5.84.65-9.08,3.89-10.36,4.54-12.31c.64-1.29,3.88-5.83,3.88-6.48s-.64-3.89.65-5.18c5.83,3.89,26.57,16.2,33.7,18.79,8.42,2.59,5.83,2.59,8.42,3.89,2.59.65,6.48.65,9.72,1.94s9.07,2.59,12.31,3.89,11.67.65,13.61,1.3,14.26.64,16.85.64c1.94,0,17.5,1.3,18.79,1.95,2,.65,16.2,1.29,28.51,0s17.5-6.48,22-7.13,13.6-4.54,18.79-5.18,5.18-2.6,7.13-3.24,1.94,0,3.88-.65c1.95-1.3,4.54-5.19,6.48-5.83,1.3,0,2.6-1.3,3.24-1.95l.65.65a52.41,52.41,0,0,1,5.83,12.31c.65,2.59.65,3.89.65,2.59,0-.64,1.95,7.78,3.24,9.08.65,1.29,1.3.64,3.24,2.59,1.95,1.29,3.24,3.24,4.54,1.94l1.29-.65s-.64,0-1.94-1.94-3.24-1.94-3.89-3.89c-.65-1.29,0-4.53-3.24-13a33.43,33.43,0,0,0-8.42-13h0a5.81,5.81,0,0,0,.65-3.24c-.65-1.29-1.95-1.29-1.3-6.48.65-4.53,1.94-7.77,3.24-15.55-1.3.65-7.78,7.13-11,9.07-3.88,1.95-3.88,3.24-7.12,4.54s-12.32,6.48-14.26,7.13-7.78,3.88-9.72,4.53a63.43,63.43,0,0,1-12.31,3.24c-5.19.65-5.83.65-8.43-1.94s-2.59-5.19-1.94-6.48a8.94,8.94,0,0,1,1.94-2.59c.65-.65,1.3-2,2.6-3.24.64-.65,4.53-8.43,5.83-9.72.65-1.3,6.48-11.67,9.07-15.56s13-23.32,13.61-24.62c.65-1.94,5.83-11.66,5.83-11.66h-.65c-2.59,0-16.85,4.53-16.85,4.53,0,.65,0,0-1.29-.65a2.29,2.29,0,0,1-1.3-1.94s.65-13,.65-14.26a36.66,36.66,0,0,1,1.3-6.48c0,.65,0,0,.64-1.94s.65-8.42,2.6-8.42c1.29,0,1.29,2.59,1.29,2.59a34.79,34.79,0,0,0-.65,5.18c0,2.59-1.29,6.48-1.94,8.43s-1.3,13.6,0,13.6,14.26-4.53,15.55-4.53,3.24-.65,3.89,1.29,0,3.24-1.3,3.89c-1.29,1.3-6.48,13-8.42,15.55-1.3,2.6-12.31,22-14.26,25.92-1.94,3.24-8.42,14.91-9.72,16.85s-5.18,5.83-5.83,7.13.65,3.24,1.3,3.24a9.2,9.2,0,0,0,3.89,1.3c.64,0,4.53,0,5.83-.65s7.77-2.59,9.72-3.24c1.29-.65,11.66-5.19,14.9-7.13s10.37-5.83,11.67-7.13a93.52,93.52,0,0,0,9.72-7.13c1.29-.64,5.18-4.53,5.83-5.18l.65-3.24s.64-11.66.64-13.61c.65-1.94,2-3.89,1.3-8.42s-3.24-18.15-5.18-22.68-.65-13,0-14.26a5.31,5.31,0,0,1,3.24-3.24c1.29,0,11,7.78,14.9,13.61a135,135,0,0,1,7.78,13.61c.64,1.29.64,7.13.64,13,.65-.65,3.24-5.19,3.89-5.83a23.26,23.26,0,0,0,3.89-7.13c1.3-2.59,4.54-10.37,4.54-12.31a6.38,6.38,0,0,0-1.95-5.19c-1.29-1.29-1.94,0-1.94,0l-1.95.65a9.55,9.55,0,0,1-4.53.65c-2.59,0-9.07,2.59-8.43.65.65-1.3.65-2,2.6-3.24s3.24-.65,5.83-1.3,6.48-2.59,8.42-1.94,3.89,4.53,4.54,6.48.65,5.83,0,6.48c-.65,1.29-1.95,5.83-2.59,7.12-1.3,1.3-1.95,5.84-3.24,7.78s-3.24,5.18-5.19,6.48-3.89,3.89-3.89,4.54v6.48c0,2.59,2,3.24,3.24,5.18s1.3,4.54,3.24,7.13c1.3,1.94,4.54,3.89,5.84,5.18,3.24,6.48,1.94,10.37,3.24,11s2.59-2,4.53-5.83c1.95-3.24,5.83-11,7.13-13,1.3-1.3,1.3-.65,1.3-1.3s1.94-3.89,1.94-5.83c.65-1.3,0-9.07,0-9.07s-.65-2.6-1.94-1.95c-2,.65-1.3,7.13-2,11-.65,2.59-1.29,3.24-1.29,3.89-.65,1.29-5.84,9.72-7.78,13.6v-1.29c-.65-.65-1.94-1.95-1.94-3.24.64-1.3,4.53-5.19,5.18-6.48s5.83-13,5.83-14.91v-5.83c.65-.65,4.54-4.53,4.54-5.18a7,7,0,0,1,1.29-4.54c1.3-1.94,5.19-12.31,5.84-14.25s3.88-11,3.88-14.91v-1.29h0c.65,1.29,3.24,4.53,3.24,6.48s-.64,7.77,0,11.66,15.56,22.68,16.2,23.33,0,2.59,1.3,4.53,1.94,2.6,1.94,3.24c.65.65.65,6.48.65,8.43v.65h0c0,.64-5.18,12.31-4.53,14.25,0,1.95-6.48,11.67-6.48,11.67l-.65,1.94a11.29,11.29,0,0,0-.65,3.24v.65c0,.65-4.54,11-3.24,12.31s3.24-.65,3.89-3.24c.65-1.94,3.89-12.31,4.53-15.55.65-2.59,5.19-9.72,5.19-11.67,0-1.29,1.94-6.48,3.24-9.07.65-2.59,1.94-1.94,1.94-4.53C388.8,276.47,388.15,269.35,387.5,268.05ZM25.92,198.71c0,2.6,1.3,14.91,1.3,14.91a34,34,0,0,0-1.3-5.19A52.82,52.82,0,0,1,24,196.77V182.51s1.94-24,1.94-26.56,0-9.72,1.3-13,5.18-16.2,5.18-16.85h0v4.53l-.65,2c-.65,1.94-3.89,9.07-3.89,11S26.57,156,25.92,157.24c0,1.3-1.3,17.5-1.3,21.39C25.27,181.22,25.92,195.47,25.92,198.71Zm7.13,38.88c-.65-2.59-2.59-7.77-2.59-7.77l-1.3-4.54a76.08,76.08,0,0,1-1.94-11,11,11,0,0,1,2.59,4.53v6.48l.65,2.59c.64,2.6,2.59,3.89,3.24,5.84A69.21,69.21,0,0,1,35,242.13,43.58,43.58,0,0,1,33.05,237.59Zm3.89-121.17a39.9,39.9,0,0,0-2.6,3.89,6.52,6.52,0,0,1,1.3-3.24S37.58,115.77,36.94,116.42Zm16.2,171.72c-3.24,2.59-8.43-17.5-7.13-18.79l.65-.65a45.33,45.33,0,0,0,4.53,6.48c1.3,1.29,3.24,2.59,4.54,3.89C55.73,283,54.43,286.84,53.14,288.14Zm48-255.31c1.94-1.3,5.18-3.24,7.77-5.19,3.24-1.94,9.72-5.18,9.72-5.18h.65a2,2,0,0,1,1.3-.65c.65,0,2.59-1.3.65,0a2.39,2.39,0,0,1-2,.65c-1.29.65-3.24,1.94-3.24,2.59a62.94,62.94,0,0,1-7.77,4.54C105.62,30.23,99.79,34.77,101.09,32.83ZM77.76,54.21l1.3-1.3L81,51.62a28.74,28.74,0,0,1,3.24-3.89c1.3-1.94,4.54-3.89,5.18-5.18,1.3-1.3,3.89-3.24,5.19-4.54a9.31,9.31,0,0,1,3.24-1.94s-4.54,5.83-6.48,7.12-9.07,8.43-9.72,9.08l-1.3.64-5.83,5.84C73.22,60.69,76.46,55.51,77.76,54.21ZM62.21,71.71c.65-.65,3.24-3.89,3.24-3.89l-.65,1.29A31.09,31.09,0,0,0,61.56,73,23.37,23.37,0,0,1,59,76.24S61.56,72.35,62.21,71.71ZM140,103.46c-.65,2.59-1.95,5.83-2.59,7.77a64.43,64.43,0,0,0-1.95,9.72c0,2-1.94,9.08-1.94,9.08s.65,1.94-2,1.94c-1.94,0-1.29-6.48,0-9.72s.65-9.72,2-11.66,1.94-6.48,1.94-6.48a100.13,100.13,0,0,1-6.48,8.42c-1.94,2.59-7.13,7.78-8.42,9.07s-4.54,5.83-5.19,6.48a98.24,98.24,0,0,0-5.18,8.43c-.65,1.29-8.42,13.6-11,13s1.3-11,2-14.26,7.77-16.2,8.42-18.14a94.26,94.26,0,0,0,3.89-12.32c.65-3.24,6.48-20.08,7.13-23.32.65-2.6,5.18-14.26,5.83-16.85.65-1.95,6.48-14.91,6.48-17.5s.65-4.53.65-6.48a7.42,7.42,0,0,0-2-3.89c-.64-.64-3.88.65-5.83,1.95-1.29,1.29-3.24,3.89-4.53,4.53s-10.37,5.19-12.32,6.48c-2.59.65-9.07,6.48-10.36,8.43S84.89,76.89,83.59,78.83c-1.94,2.6-10.37,15.56-11.66,18.8-2,3.24-2,3.88-2,3.24s-6.48,13.6-7.12,16.2-2.6,9.07-2.6,10.36-.64,5.84,0,6.48,3.24.65,5.19,0,1.29,0,1.94.65v.65h0c0,1.3-3.24,1.94-4.53,1.94s-3.89,0-4.54-1.94c-1.3-1.94-1.3-6.48-.65-9.07.65-3.24,2.59-11,3.24-13S68.69,97,70,95,82.3,75.59,84.24,73,96.55,56.15,98.5,54.86s7.77-7.78,10.36-8.43,11.67-5.83,13.61-7.12,3.89-3.89,4.54-3.89,1.94-.65,4.53-1.3c3.24-1.29,2.6-1.29,4.54,1.3,1.3,1.94,2.59,8.42,1.94,11.66a29.78,29.78,0,0,0-.64,3.89s-5.19,11.66-6.48,15.55c-.65,3.89-3.89,13-4.54,14.91s-6.48,21.38-7.13,23.32-5.18,14.91-5.83,16.85c-1.3,1.3-5.18,11-6.48,12.31-.65,1.3-1.3,5.19-1.94,7.13l4.53-5.83a18,18,0,0,1,3.24-5.83c1.3-1.95,6.48-8.43,7.13-9.07,0-.65,8.42-8.43,9.07-9.72s.65-.65.65-1.3,5.18-4.54,5.83-6.48c.65-1.3,2.59-3.89,3.89-3.89S141.26,100.22,140,103.46Zm1.94-90.72s-.65,1.29-3.24,2.59c-1.94.65-2.59.65-4.53,1.3s-6.48,1.94-8.43,3.24l-.65.64.65-.64c1.3-1.3,4.54-3.89,5.83-3.89a61.07,61.07,0,0,0,5.84-2c1.94-.64,2.59-1.94,4.53-2.59s3.89-.65,5.19-1.29,6.48-2.6,9.72-2.6,3.24-1.29,5.18-1.94a18.83,18.83,0,0,0,5.18-1.3h3.24a38.69,38.69,0,0,1-3.88,2.6c-.65,0-.65.64-1.95,1.29s-3.89,0-6.48.65-9.07,2.59-11,3.24A24.29,24.29,0,0,1,141.91,12.74Zm39.53,211.89a2.86,2.86,0,0,0-1.94-.64c-.65-.65-1.95-1.3-.65-1.3s1.29.65,1.29.65h1.3a2.38,2.38,0,0,1,1.94,1.29Zm58.32-37.58c-.65,2.59-7.13,15.55-10.37,19.44-3.89,4.54-16.2,11.66-23.33,13.61-6.48,1.94-8.42,2.59-11,3.89s-5.19,0-6.48,0-1.3-.65-5.83-2-9.08-4.53-11.67-6.48-7.13-3.89-9.72-5.18-6.48-9.07-8.42-11.67-2.59-7.12-3.89-13,0-13.6,1.3-19.44,3.24-12.31,6.48-16.2L163.3,143l1.29-.65c1.3-.65,1.95.65,3.89,0s5.83-5.19,8.42-6.48c1.95-1.3,6.48-.65,8.43-1.3a19.53,19.53,0,0,0,3.89-1.94l3.88-.65c3.24-.65,12.32.65,12.32.65l4.53,1.29c4.54,1.3,7.78,7.13,7.78,7.13h1.94c2,0,2.59-.65,5.83,0s7.13,9.07,7.13,9.07l2,2.6c1.94,2.59,4.53,11.66,5.83,16.2C241.06,172.79,240.41,184.46,239.76,187.05ZM189.86,17.27s1.95,0,1.95.65-1.3,1.3-1.3,1.3a3.19,3.19,0,0,1-1.94-.65C187.92,17.92,189.22,17.27,189.86,17.27Zm130.9,36.29c-1.94-1.94-7.78-6.48-8.42-7.13-1.3-1.29-3.89-1.29-4.54-1.94-1.3-.65-7.13-7.13-8.42-8.42-1.3-.65-1.3,0-3.24-.65s-.65-2-3.24-2.59a15.44,15.44,0,0,1-4.54-1.95c-1.3-1.29-2.59-.65-5.83-1.94s-.65-2-5.19-3.24-3.88-2.59-8.42-3.89c-4.54-1.94-4.54-3.24-11-4.54s-11-4.53-13.6-5.18a40.32,40.32,0,0,1-7.13-1.94c-3.24-.65-1.95-2-6.48-3.24s-7.78-.65-11-1.3S209.3,4.31,207.36,3s-5.18,0-7.13,0c-3.89,0-5.83,1.29-7.77,0-2-.65-8.43-.65-8.43-.65a20,20,0,0,1,4.54-1.3c1.29,0,4.53-.64,7.77-.64,2.6-.65,9.72,0,11,.64,1.94.65,5.18.65,7.78,1.3s18.79,3.24,20.08,3.24a53.59,53.59,0,0,1,9.72,2.59c1.3.65,10.37,4.54,11.67,5.19s11,4.53,13.61,5.83,13.6,5.18,13.6,5.18l1.3.65c1.3.65,5.18,3.24,5.18,3.24l.65.65c.65.65,8.43,4.53,11,6.48,3.24,1.29,7.77,6.48,11.66,9.72,1.95.65,5.83,6.48,7.13,8.42l.65.65C322.06,54.86,321.41,54.86,320.76,53.56Z"/></g></g></svg>